<svg xmlns="http://www.w3.org/2000/svg" xmlns:xlink="http://www.w3.org/1999/xlink" width="34.64" height="38.762" viewBox="0 0 34.64 38.762">
  <defs>
    <linearGradient id="linear-gradient" x1="0.834" y1="0.695" x2="0.14" y2="0.242" gradientUnits="objectBoundingBox">
      <stop offset="0" stop-color="#f01010"/>
      <stop offset="1" stop-color="#f49e9e"/>
    </linearGradient>
  </defs>
  <g id="PM" transform="translate(-2.68 -0.619)">
    <path id="Path_8021" data-name="Path 8021" d="M22,51.155l13.32,7.69a4,4,0,0,1,2,3.464V77.691a4,4,0,0,1-2,3.464L22,88.845a4,4,0,0,1-4,0L4.68,81.155a4,4,0,0,1-2-3.464V62.309a4,4,0,0,1,2-3.464L18,51.155a4,4,0,0,1,4,0Z" transform="translate(0 -50)" fill-rule="evenodd" fill="url(#linear-gradient)"/>
    <path id="Path_8046" data-name="Path 8046" d="M34.571,160.067H33.2c-.224-.026-.5-.026-.773-.05-.074.024-.1.1-.125.2a.287.287,0,0,0,.051.249l.3.025a4.411,4.411,0,0,1,.823.224.745.745,0,0,1,.349.5,3.228,3.228,0,0,1,.05.9q-.038.785-.075,1.87c-.026.724-.075,1.472-.125,2.245a27.116,27.116,0,0,1-.482,4.971.708.708,0,0,1-.349.4,2.124,2.124,0,0,1-.625.174l-.4.05c-.074.049-.1.125-.074.25a.3.3,0,0,0,.1.225l.949-.075h1.973c.374.025.7.051,1,.075a.261.261,0,0,0,.125-.225.318.318,0,0,0-.1-.25l-.7-.05a1.014,1.014,0,0,1-.525-.174.539.539,0,0,1-.15-.205,3.833,3.833,0,0,1-.143-1.327c.016-.773.026-1.546.05-2.319s.05-1.447.074-2.02c.024-.523.076-1.073.1-1.621s.049-1.1.075-1.646h.049c.2.424.4.848.574,1.321.2.449.4.9.6,1.322l1.671,3.565q.226.45.523,1.123c.225.474.449.922.649,1.371.106.238.2.46.274.67a4.538,4.538,0,0,1,.175.513.248.248,0,0,0,.35,0c.155-.372.317-.748.5-1.107.472-1.06.965-2.073,1.521-3.092l1.621-3.217c.125-.275.249-.574.424-.9.175-.349.349-.673.5-.947a4.312,4.312,0,0,1,.273-.574H44.3l.051,7.706a5.158,5.158,0,0,1-.025.921.5.5,0,0,1-.242.435c-.1.124-.3.174-.625.2l-.55.05a.255.255,0,0,0-.05.25.3.3,0,0,0,.1.225l1.148-.075h2.148l1.124.075a.243.243,0,0,0,.1-.225.291.291,0,0,0-.05-.25l-.6-.05a.958.958,0,0,1-.6-.226.8.8,0,0,1-.249-.474,7.045,7.045,0,0,1-.051-.8c-.051-.928-.086-1.87-.11-2.8-.025-1-.075-1.945-.1-2.842v-2.37a5.237,5.237,0,0,1,.074-1,.924.924,0,0,1,.349-.548,2.53,2.53,0,0,1,.873-.224l.375-.025a.255.255,0,0,0,.05-.249.284.284,0,0,0-.075-.2c-.3.024-.6.024-.873.05H45.144c-.225-.026-.475-.026-.8-.05a4.719,4.719,0,0,1-.4,1.447c-.274.572-.6,1.272-1,2.095L41.2,167.074a28.545,28.545,0,0,1-1.42,2.775h-.05c-.441-.833-.848-1.7-1.249-2.55l-2.119-4.24c-.274-.6-.524-1.171-.723-1.7a3.605,3.605,0,0,1-.224-1.347C35.12,160.041,34.845,160.041,34.571,160.067Zm-10.232,9.479a10.305,10.305,0,0,1-.076,1.45c-.05.641-.473.851-1.07.892l-.382.051a.345.345,0,0,0,.027.483c.788-.049,1.5-.077,2.291-.077.843,0,1.629.037,2.469.077a.478.478,0,0,0,.1-.229.335.335,0,0,0-.077-.254l-.509-.051a1.513,1.513,0,0,1-.84-.23l-.027-.021a.955.955,0,0,1-.311-.626,7.894,7.894,0,0,1-.051-1.447v-1.781a7.288,7.288,0,0,1-1.526-.076Zm-1.631-9.287a.262.262,0,0,0,.1.254l.661.075a.969.969,0,0,1,.61.229.766.766,0,0,1,.229.559c.026.279.051.687.051,1.22v3.762a15.206,15.206,0,0,0,1.526,0v-5.186a.947.947,0,0,1,.051-.483.332.332,0,0,1,.254-.177,5.555,5.555,0,0,1,.738-.026,3.121,3.121,0,0,1,2.237.813,3.052,3.052,0,0,1,.762,2.187,3.092,3.092,0,0,1-.61,2.058,2.937,2.937,0,0,1-1.7,1.017,13.209,13.209,0,0,1-3.178.228c-1.22-.024-2.542-.1-3.991-.253,1.6.33,2.8.559,3.559.635a13.143,13.143,0,0,0,3.609-.05,7.437,7.437,0,0,0,1.6-.407,8.931,8.931,0,0,0,1.4-.814,2.8,2.8,0,0,0,.763-.966,4.078,4.078,0,0,0,.3-1.475,3.582,3.582,0,0,0-.457-1.678,3.236,3.236,0,0,0-1.043-1.143,5.2,5.2,0,0,0-1.576-.586,12.209,12.209,0,0,0-2.059-.152c-.763,0-1.449,0-2.059.025s-1.17.051-1.653.1A.269.269,0,0,0,22.707,160.259Zm0,0" transform="translate(-14.736 -145.84)" fill="#fff" fill-rule="evenodd"/>
  </g>
</svg>
