<svg xmlns="http://www.w3.org/2000/svg" xmlns:xlink="http://www.w3.org/1999/xlink" width="34.64" height="38.762" viewBox="0 0 34.64 38.762">
  <defs>
    <linearGradient id="linear-gradient" x1="0.834" y1="0.695" x2="0.14" y2="0.242" gradientUnits="objectBoundingBox">
      <stop offset="0" stop-color="#4fa393"/>
      <stop offset="1" stop-color="#3be6c6"/>
    </linearGradient>
  </defs>
  <g id="IRR" transform="translate(-2.68 -0.619)">
    <path id="Path_8021" data-name="Path 8021" d="M22,51.155l13.32,7.69a4,4,0,0,1,2,3.464V77.691a4,4,0,0,1-2,3.464L22,88.845a4,4,0,0,1-4,0L4.68,81.155a4,4,0,0,1-2-3.464V62.309a4,4,0,0,1,2-3.464L18,51.155a4,4,0,0,1,4,0Z" transform="translate(0 -50)" fill-rule="evenodd" fill="url(#linear-gradient)"/>
    <path id="Path_8044" data-name="Path 8044" d="M-19.443-1.662q-.079.147-.147.305t-.13.322A5.959,5.959,0,0,0-19.9-.39a2.547,2.547,0,0,0-.059.729,1.721,1.721,0,0,0,.13.588,1.935,1.935,0,0,0,.291.48,2.088,2.088,0,0,0,.4.373,2.826,2.826,0,0,0,.458.266,2.447,2.447,0,0,0,.466.161,1.891,1.891,0,0,0,.424.054,2.739,2.739,0,0,0,.52-.054,2.951,2.951,0,0,0,.554-.167,2.9,2.9,0,0,0,.531-.285,2.066,2.066,0,0,0,.452-.418,1.969,1.969,0,0,0,.314-.562,2.061,2.061,0,0,0,.116-.712q0-.447-.025-1.054t-.062-1.294q-.037-.687-.088-1.416t-.1-1.424q-.062-.837-.127-1.665t-.144-1.738l1.8-.418q.04.972.076,1.854t.065,1.763q.028.735.054,1.5t.048,1.489q.023.721.034,1.345t.011,1.071a4.5,4.5,0,0,1-.181,1.331,3.719,3.719,0,0,1-.486,1.026,3.229,3.229,0,0,1-.709.746,4.125,4.125,0,0,1-.848.5,4.294,4.294,0,0,1-.9.28,4.636,4.636,0,0,1-.87.088,4.121,4.121,0,0,1-.853-.093,4.07,4.07,0,0,1-.859-.285,3.921,3.921,0,0,1-.791-.486,3.2,3.2,0,0,1-.65-.692,3.3,3.3,0,0,1-.435-.9A3.527,3.527,0,0,1-21.5.463a7.08,7.08,0,0,1,.11-1.2,6.923,6.923,0,0,1,.218-.873q.073-.215.153-.4t.158-.331Zm9.637,2A3.345,3.345,0,0,1-11,.15a2.115,2.115,0,0,1-.8-.523,1.987,1.987,0,0,1-.449-.788,3.373,3.373,0,0,1-.138-.986q0-.271.011-.675t.011-.935q0-.531-.006-1.167T-12.409-6.2q-.025-.639-.073-1.227a9.448,9.448,0,0,0-.133-1.023l1.69-.514q.073.373.122.879t.076,1.06q.028.554.042,1.113t.02,1.04q.006.424-.014.89t-.031.893q-.011.427.008.772a1.484,1.484,0,0,0,.1.526.506.506,0,0,0,.127.2.505.505,0,0,0,.178.1.825.825,0,0,0,.223.04q.122.006.268.006h.153V.339Zm-.068-1.786h1.357q.243,0,.537-.025a2.645,2.645,0,0,0,.551-.1A1.125,1.125,0,0,0-7-1.812a.525.525,0,0,0,.172-.41,1.534,1.534,0,0,0-.082-.4q-.082-.268-.215-.6t-.3-.692q-.167-.362-.331-.69l1.617-.8q.158.356.314.757t.28.814a7.793,7.793,0,0,1,.2.822,4.279,4.279,0,0,1,.076.783,2.529,2.529,0,0,1-.257,1.19,2.213,2.213,0,0,1-.7.8A2.96,2.96,0,0,1-7.257.2,5.587,5.587,0,0,1-8.529.339H-9.874ZM-7.67,2-8.733,3.058l-1.1-1.091L-8.744.876-7.67,1.95-6.607.887l1.1,1.091L-6.6,3.069ZM-.983-3.8q.119.35.252.766t.243.851q.11.435.184.868a4.855,4.855,0,0,1,.073.811A3.767,3.767,0,0,1-.376.528a4.652,4.652,0,0,1-.407.981,5.872,5.872,0,0,1-.625.91,7.332,7.332,0,0,1-.8.822,8.52,8.52,0,0,1-.944.718,9.818,9.818,0,0,1-1.04.6l-1.029-1.43q.407-.2.822-.461a9.488,9.488,0,0,0,.8-.551A8.118,8.118,0,0,0-2.891,1.5,5.363,5.363,0,0,0-2.315.842,3.2,3.2,0,0,0-1.927.167,1.746,1.746,0,0,0-1.786-.5a2.26,2.26,0,0,0-.065-.514,5.7,5.7,0,0,0-.178-.6q-.113-.319-.263-.678t-.325-.766Z" transform="translate(30.68 21.619)" fill="#fff"/>
  </g>
</svg>
